<svg xmlns="http://www.w3.org/2000/svg" width="20.4" height="20.4" viewBox="0 0 20.4 20.4">
  <path id="ac-unit" d="M11.18,22.4V18.167L7.865,21.431,6.437,20,11.18,15.26V13.22H9.14L4.4,17.963,2.969,16.535,6.233,13.22H2V11.18H6.233L2.969,7.865,4.4,6.437,9.14,11.18h2.04V9.14L6.437,4.4,7.865,2.969,11.18,6.233V2h2.04V6.233l3.315-3.264L17.963,4.4,13.22,9.14v2.04h2.04L20,6.437l1.428,1.428L18.167,11.18H22.4v2.04H18.167l3.264,3.315L20,17.963,15.26,13.22H13.22v2.04L17.963,20l-1.428,1.428L13.22,18.167V22.4Z" transform="translate(-2 -2)"/>
</svg>
