<svg xmlns="http://www.w3.org/2000/svg" width="16.8" height="24" viewBox="0 0 16.8 24">
  <path id="luggage-outline" d="M7.4,24.8A2.407,2.407,0,0,1,5,22.4V9.2A2.409,2.409,0,0,1,7.4,6.8H9.8V3.2a.966.966,0,0,1,.556-.9A2.572,2.572,0,0,1,11.6,2h3.6a2.579,2.579,0,0,1,1.246.3A.966.966,0,0,1,17,3.2V6.8h2.4a2.407,2.407,0,0,1,2.4,2.4V22.4a2.4,2.4,0,0,1-2.4,2.4,1.2,1.2,0,1,1-2.4,0H9.8a1.2,1.2,0,1,1-2.4,0Zm4.2-18h3.6v-3H11.6ZM7.4,22.4h12V9.2H7.4Zm1.2-1.2h1.8V10.4H8.6Zm3.9,0h1.8V10.4H12.5Zm3.9,0h1.8V10.4H16.4Zm-9,1.2v0Z" transform="translate(-5 -2)"/>
</svg>
