<svg xmlns="http://www.w3.org/2000/svg" width="16.582" height="12.68" viewBox="0 0 16.582 12.68">
  <path id="Path_143" data-name="Path 143" d="M2321.335-221.7h-13.667a1.462,1.462,0,0,0-1.458,1.463v9.754a1.463,1.463,0,0,0,1.458,1.463h13.667a1.463,1.463,0,0,0,1.457-1.463v-9.754A1.462,1.462,0,0,0,2321.335-221.7Zm-.2.975-6.6,6.627-6.658-6.627Zm-13.951,10.04v-9.354l4.679,4.657Zm.687.69,4.682-4.7,1.641,1.633a.485.485,0,0,0,.686,0l1.6-1.606,4.656,4.675Zm13.951-.69-4.656-4.675,4.656-4.675Z" transform="translate(-2306.211 221.705)" fill="#fff" fill-rule="evenodd"/>
</svg>
