<svg xmlns="http://www.w3.org/2000/svg" width="19.547" height="19.543" viewBox="0 0 19.547 19.543">
  <path id="Icon_awesome-instagram" data-name="Icon awesome-instagram" d="M9.77,7a5.01,5.01,0,1,0,5.01,5.01A5,5,0,0,0,9.77,7Zm0,8.268a3.257,3.257,0,1,1,3.257-3.257A3.263,3.263,0,0,1,9.77,15.266Zm6.384-8.473a1.169,1.169,0,1,1-1.169-1.169A1.166,1.166,0,0,1,16.154,6.794ZM19.473,7.98a5.783,5.783,0,0,0-1.579-4.095A5.822,5.822,0,0,0,13.8,2.306c-1.613-.092-6.45-.092-8.063,0A5.813,5.813,0,0,0,1.642,3.881,5.8,5.8,0,0,0,.063,7.975c-.092,1.613-.092,6.45,0,8.063a5.783,5.783,0,0,0,1.579,4.095,5.829,5.829,0,0,0,4.095,1.579c1.613.092,6.45.092,8.063,0a5.783,5.783,0,0,0,4.095-1.579,5.822,5.822,0,0,0,1.579-4.095c.092-1.613.092-6.445,0-8.059Zm-2.084,9.79a3.3,3.3,0,0,1-1.858,1.858c-1.286.51-4.339.392-5.761.392s-4.478.113-5.761-.392A3.3,3.3,0,0,1,2.152,17.77c-.51-1.286-.392-4.339-.392-5.761s-.113-4.478.392-5.761A3.3,3.3,0,0,1,4.01,4.391C5.3,3.881,8.349,4,9.77,4s4.478-.113,5.761.392a3.3,3.3,0,0,1,1.858,1.858c.51,1.286.392,4.339.392,5.761S17.9,16.487,17.389,17.77Z" transform="translate(0.005 -2.238)" fill="#fff"/>
</svg>
