<svg xmlns="http://www.w3.org/2000/svg" width="18.726" height="18.725" viewBox="0 0 18.726 18.725">
  <path id="Icon_awesome-linkedin-in" data-name="Icon awesome-linkedin-in" d="M4.192,18.726H.309V6.224H4.192ZM2.248,4.519A2.259,2.259,0,1,1,4.5,2.249,2.267,2.267,0,0,1,2.248,4.519ZM18.722,18.726H14.848V12.64c0-1.45-.029-3.31-2.018-3.31-2.018,0-2.328,1.576-2.328,3.206v6.19H6.623V6.224h3.723V7.93H10.4a4.079,4.079,0,0,1,3.673-2.019c3.929,0,4.651,2.587,4.651,5.948v6.868Z" transform="translate(0 -0.001)" fill="#fff"/>
</svg>
