<svg xmlns="http://www.w3.org/2000/svg" width="13.697" height="13.689" viewBox="0 0 13.697 13.689">
  <path id="Union_12" data-name="Union 12" d="M8.974,12.674a6.537,6.537,0,0,1-2.361-.7A12.618,12.618,0,0,1,2.407,8.7,11.508,11.508,0,0,1,.355,5.281,4.676,4.676,0,0,1,.011,3.3,1.958,1.958,0,0,1,.594,2.05l.912-.918,0-.005A1.318,1.318,0,0,1,2.424.733a1.272,1.272,0,0,1,.9.394c.175.161.344.331.5.5.08.086.166.171.25.254l.732.731a1.224,1.224,0,0,1,0,1.851l-.225.228c-.2.2-.4.409-.623.61a5.434,5.434,0,0,0,.724,1.14A9.215,9.215,0,0,0,6.895,8.447c.077.048.169.094.265.142.067.035.136.07.206.107l.848-.843a1.294,1.294,0,0,1,.918-.412,1.25,1.25,0,0,1,.907.415L11.512,9.33a1.285,1.285,0,0,1,.413.918,1.331,1.331,0,0,1-.4.926c-.116.121-.233.236-.349.345A6.06,6.06,0,0,0,10.7,12s-.008.008-.011.013a2.024,2.024,0,0,1-1.548.663C9.089,12.68,9.03,12.678,8.974,12.674ZM2.021,1.646l-.915.912a1.225,1.225,0,0,0-.37.795,3.806,3.806,0,0,0,.3,1.675A10.878,10.878,0,0,0,2.969,8.238a11.916,11.916,0,0,0,3.961,3.094,5.834,5.834,0,0,0,2.094.626c.04,0,.083,0,.123,0a1.294,1.294,0,0,0,1.009-.426A7.164,7.164,0,0,1,10.673,11c.115-.112.223-.215.328-.326a.529.529,0,0,0,0-.838L9.519,8.361l-.006-.005a.542.542,0,0,0-.386-.2.607.607,0,0,0-.406.2L7.8,9.276A.571.571,0,0,1,7.4,9.46a.59.59,0,0,1-.266-.067c-.011-.005-.021-.013-.032-.018-.078-.049-.169-.093-.266-.142s-.22-.11-.33-.18A9.808,9.808,0,0,1,4.12,6.891l0,0A5.862,5.862,0,0,1,3.25,5.478a.239.239,0,0,1-.008-.024.544.544,0,0,1,.14-.607c0-.005.008-.008.013-.013.234-.209.448-.423.673-.653.078-.076.153-.153.231-.23a.509.509,0,0,0,0-.828L3.567,2.39l-.255-.26c-.164-.168-.319-.326-.483-.479l-.008-.007a.571.571,0,0,0-.392-.187A.609.609,0,0,0,2.021,1.646ZM11,10.673h0S11,10.673,11,10.673ZM9.675,5.821A3.454,3.454,0,0,0,6.863,3.016.357.357,0,0,1,6.57,2.6.364.364,0,0,1,6.988,2.3a4.17,4.17,0,0,1,3.4,3.393.363.363,0,0,1-.3.418.5.5,0,0,1-.062.005A.359.359,0,0,1,9.675,5.821Zm2.3-.11A6.133,6.133,0,0,0,6.97.718.361.361,0,1,1,7.088.006a6.866,6.866,0,0,1,5.6,5.588.354.354,0,0,1-.3.412.393.393,0,0,1-.061.005A.359.359,0,0,1,11.977,5.711Z" transform="translate(0.5 0.509)" fill="#fff" stroke="rgba(0,0,0,0)" stroke-miterlimit="10" stroke-width="1"/>
</svg>
