<svg xmlns="http://www.w3.org/2000/svg" width="10.884" height="13.68" viewBox="0 0 10.884 13.68">
  <path id="Union_14" data-name="Union 14" d="M4.835,12.68A2.279,2.279,0,0,1,4.52,12.4c-.83-1.067-1.665-2.13-2.473-3.21A12.359,12.359,0,0,1,.4,6.337,5.141,5.141,0,0,1,0,4.353,4.569,4.569,0,0,1,3.569.18C3.871.1,4.187.073,4.5.021,4.527.015,4.557.007,4.587,0H5.3c.269.042.542.071.807.127a4.671,4.671,0,0,1,3.732,3.72,4.936,4.936,0,0,1-.435,2.7,13.843,13.843,0,0,1-1.752,2.9C6.88,10.476,6.083,11.488,5.291,12.5a1.145,1.145,0,0,1-.237.177ZM4.547.763A4.052,4.052,0,0,0,.986,3.425,3.775,3.775,0,0,0,1.113,5.93a9.961,9.961,0,0,0,1.36,2.475c.792,1.075,1.62,2.129,2.432,3.191a.472.472,0,0,0,.04.04c.019-.02.035-.034.047-.05.694-.9,1.4-1.785,2.078-2.691A12.333,12.333,0,0,0,8.7,6.14a4.114,4.114,0,0,0,.335-2.159A4,4,0,0,0,4.934.747Q4.742.747,4.547.763ZM4.938,6.95A2.424,2.424,0,0,1,2.472,4.579,2.425,2.425,0,0,1,4.951,2.222a2.423,2.423,0,0,1,2.465,2.37A2.425,2.425,0,0,1,4.943,6.95Zm0-3.94A1.619,1.619,0,0,0,3.3,4.58,1.619,1.619,0,0,0,4.942,6.162a1.619,1.619,0,0,0,1.65-1.578A1.619,1.619,0,0,0,4.943,3.01Z" transform="translate(0.5 0.5)" fill="#fff" stroke="rgba(0,0,0,0)" stroke-miterlimit="10" stroke-width="1"/>
</svg>
