<svg xmlns="http://www.w3.org/2000/svg" width="23.105" height="18.725" viewBox="0 0 23.105 18.725">
  <path id="Path_76" data-name="Path 76" d="M601.446-1297.292a9.889,9.889,0,0,1-2.375,2.442q.015.2.015.615a13.393,13.393,0,0,1-.557,3.8,13.717,13.717,0,0,1-1.693,3.635,14.3,14.3,0,0,1-2.7,3.08,12.037,12.037,0,0,1-3.783,2.136,13.835,13.835,0,0,1-4.735.8,13.176,13.176,0,0,1-7.272-2.12,10.236,10.236,0,0,0,1.144.058,9.283,9.283,0,0,0,5.878-2.019,4.626,4.626,0,0,1-2.756-.943,4.628,4.628,0,0,1-1.671-2.335,5.835,5.835,0,0,0,.894.074,4.936,4.936,0,0,0,1.246-.16,4.665,4.665,0,0,1-2.719-1.632,4.562,4.562,0,0,1-1.078-3.006v-.058a4.688,4.688,0,0,0,2.141.6,4.728,4.728,0,0,1-1.539-1.682,4.6,4.6,0,0,1-.572-2.253,4.624,4.624,0,0,1,.645-2.385,13.4,13.4,0,0,0,4.317,3.489,13.213,13.213,0,0,0,5.447,1.457,5.229,5.229,0,0,1-.117-1.083,4.55,4.55,0,0,1,1.385-3.344,4.57,4.57,0,0,1,3.35-1.382,4.567,4.567,0,0,1,3.46,1.492,9.33,9.33,0,0,0,3.005-1.141,4.594,4.594,0,0,1-2.082,2.6A9.515,9.515,0,0,0,601.446-1297.292Z" transform="translate(-578.341 1299.516)" fill="#fff"/>
</svg>
