<svg xmlns="http://www.w3.org/2000/svg" width="25.2" height="17.85" viewBox="0 0 25.2 17.85">
  <path id="wifi" d="M6.667,15.918l-2.2-2.257A11.628,11.628,0,0,1,8.1,11.206a11.176,11.176,0,0,1,4.5-.906,11.051,11.051,0,0,1,4.5.919,11.6,11.6,0,0,1,3.635,2.494l-2.2,2.205a8.518,8.518,0,0,0-2.677-1.811,8.4,8.4,0,0,0-6.51,0,8.518,8.518,0,0,0-2.678,1.811ZM2.2,11.455,0,9.25A17.43,17.43,0,0,1,12.6,4,17.43,17.43,0,0,1,25.2,9.25l-2.205,2.2A14.823,14.823,0,0,0,18.31,8.291,14.349,14.349,0,0,0,12.6,7.15,14.349,14.349,0,0,0,6.89,8.291,14.823,14.823,0,0,0,2.2,11.455ZM12.6,21.85l3.7-3.727a5.259,5.259,0,0,0-1.654-1.116,5.362,5.362,0,0,0-4.095,0A5.259,5.259,0,0,0,8.9,18.123Z" transform="translate(0 -4)"/>
</svg>
