<svg xmlns="http://www.w3.org/2000/svg" width="21.385" height="14.263" viewBox="0 0 21.385 14.263">
  <path id="Path_78" data-name="Path 78" d="M773.667-1356.559c0-.008,0-.017-.006-.025a2.928,2.928,0,0,0-2.12-2.03,70.376,70.376,0,0,0-8.13-.377c-.264,0-6.5,0-8.145.416a2.929,2.929,0,0,0-2.111,2.051,24.09,24.09,0,0,0-.436,4.68,24.06,24.06,0,0,0,.446,4.757,2.944,2.944,0,0,0,2.107,1.946c1.641.41,7.875.414,8.139.414s6.5,0,8.145-.416a2.926,2.926,0,0,0,2.111-2.052,24.09,24.09,0,0,0,.436-4.644A24.089,24.089,0,0,0,773.667-1356.559Zm-6.78,5.058-5.369,2.851a.445.445,0,0,1-.208.051.443.443,0,0,1-.211-.053.389.389,0,0,1-.209-.339v-5.7a.389.389,0,0,1,.209-.339.447.447,0,0,1,.419,0l5.369,2.851a.388.388,0,0,1,.212.341A.388.388,0,0,1,766.887-1351.5Z" transform="translate(-752.719 1358.991)" fill="#fff"/>
</svg>
